ply
format ascii 1.0
element vertex 18
property float x
property float y
property float z
end_header
-28.1936 -7.74636 15.3057
19.046 -0.583691 13.1443
-26.3434 -7.35316 14.1144
-27.9951 -7.55572 14.2567
-35.6635 -6.85357 20.4303
25.306 0.817441 16.1007
-41.5636 -9.21976 15.6862
-32.1013 -8.02917 9.69806
-10.892 -5.3911 2.5142
17.2903 -1.11879 5.34517
7.82566 -4.2721 1.58959
-59.7106 -8.76072 43.3709
-25.8439 -8.27435 3.63884
-61.6803 -6.7908 51.0722
-3.95339 -5.56623 1.4462
-23.9328 -7.82478 3.88065
-60.653 -8.6219 44.759
3.2261 -4.53734 0.942972
