ply
format ascii 1.0
element vertex 23
property float x
property float y
property float z
property uchar diffuse_red
property uchar diffuse_green
property uchar diffuse_blue
end_header
-28.1936 -7.74636 15.3057 255 0 255
19.046 -0.583691 13.1443 255 0 255
-26.3434 -7.35316 14.1144 255 0 255
-27.9951 -7.55572 14.2567 255 0 255
-35.6635 -6.85357 20.4303 255 0 255
25.306 0.817441 16.1007 255 0 255
-59.7645 -6.77962 46.3148 0 255 0
24.2105 -1.26943 6.76491 0 255 0
-41.5636 -9.21976 15.6862 255 0 255
-32.1013 -8.02917 9.69806 255 0 255
-10.892 -5.3911 2.5142 255 0 255
17.2903 -1.11879 5.34517 255 0 255
37.0269 2.83382 16.8988 0 255 0
7.82566 -4.2721 1.58959 255 0 255
-59.7106 -8.76072 43.3709 255 0 255
-25.8439 -8.27435 3.63884 255 0 255
-61.6803 -6.7908 51.0722 255 0 255
-37.9052 -9.04538 12.916 0 255 0
-3.95339 -5.56623 1.4462 255 0 255
34.4211 1.57194 13.8175 0 255 0
-23.9328 -7.82478 3.88065 255 0 255
-60.653 -8.6219 44.759 255 0 255
3.2261 -4.53734 0.942972 255 0 255
